<svg width="76" height="26" fill="none" xmlns="http://www.w3.org/2000/svg"><g clip-path="url(#clip0)"><path d="M60.936 20.27c8.45 0 13.413-3.272 13.413-3.272l-.004 4.817s-4.813 4.013-13.406 4.013h-.003c-8.593 0-13.406-4.013-13.406-4.013l-.004-4.817s4.96 3.271 13.41 3.271z" fill="#FF4646"/><path d="M20.731.204a7.102 7.102 0 1 0 0 14.203 7.102 7.102 0 0 0 0-14.203zm0 9.747c-1.423 0-2.573-1.223-2.573-2.646 0-1.423 1.154-2.645 2.573-2.645 1.423 0 2.574 1.222 2.574 2.645s-1.15 2.646-2.574 2.646zM14.686.541H9.763l-2.12 4.592L5.207.541H.333l4.957 8.94-2.308 4.592h4.936L14.686.541zM68.898.204a7.102 7.102 0 1 0 0 14.203 7.102 7.102 0 0 0 0-14.203zm0 9.747c-1.423 0-2.573-1.223-2.573-2.646 0-1.423 1.154-2.645 2.573-2.645 1.42 0 2.574 1.222 2.574 2.645.003 1.423-1.15 2.646-2.574 2.646zM37.556.565v7.581a1.809 1.809 0 0 1-3.616 0V.565h-4.53v8.048c0 3.533 2.661 5.794 6.161 5.794h.347c3.5 0 6.162-2.26 6.162-5.794V.565h-4.524zm15.673 0h-5.733v13.508h5.801c4.228 0 7.173-3.023 7.173-6.754v-.174c.003-3.73-3.07-6.58-7.241-6.58zm2.809 6.754c0 1.372-.964 2.451-2.588 2.499-.85.027-1.617 0-1.617 0V4.82s.684-.027 1.617 0c1.658.048 2.587 1.127 2.587 2.5z" fill="#000200"/></g><defs><clipPath id="clip0"><path fill="#fff" d="M0 0h76v25.861H0z"/></clipPath></defs></svg>